# xmcd
#
# Track frame offsets:
# 150
# 17610
# 32132
# 46650
# 63527
# 77860
# 92450
# 108832
# 124035
# 141812
#
# Disc length: 2138 seconds
#
#
# Revision: 2
# Processed by: cddbd v1.4PL0 Copyright (c) Steve Scherf et al.
# Submitted via: FreeRIP 2.35 
#
DISCID=7608580a
DTITLE=Collin Raye - Love Songs
DYEAR=2000
DGENRE=Country
TTITLE0=Love, Me
TTITLE1=In This Life
TTITLE2=Let It Be Me
TTITLE3=The Gift
TTITLE4=I Volunteer
TTITLE5=That Was A River
TTITLE6=All My Roads
TTITLE7=Survivors
TTITLE8=Dreaming My Dreams With You
TTITLE9=And I Love You So
EXTD=YEAR: 2000
EXTT0=
EXTT1=
EXTT2=
EXTT3=
EXTT4=
EXTT5=
EXTT6=
EXTT7=
EXTT8=
EXTT9=
PLAYORDER=
